<svg preserveAspectRatio="none" overflow="visible" style="display: block;" width="68.4788" height="35.5386" viewBox="0 0 68.4788 35.5386" fill="none" xmlns="http://www.w3.org/2000/svg">
<g id="Group">
<path id="Vector" d="M6.44696 8.56422H10.4563C10.4563 9.07741 10.328 9.52645 10.1355 9.94342C9.84686 10.5528 9.39781 11.034 8.7884 11.3547C8.17898 11.6754 7.50542 11.8358 6.67148 11.8358C5.83754 11.8358 5.13191 11.6434 4.52249 11.2906C3.91307 10.9377 3.43196 10.3925 3.07914 9.65475C2.72632 8.94911 2.56594 8.0831 2.56594 7.05672C2.56594 6.03033 2.72632 5.1964 3.07914 4.49076C3.43196 3.75304 3.91307 3.20778 4.55456 2.82288C5.19605 2.43799 5.90169 2.21347 6.76771 2.21347C7.63372 2.21347 8.4035 2.40591 9.04499 2.82288C9.65441 3.23985 10.1035 3.81719 10.3921 4.65113H12.8939C12.5732 3.14363 11.8996 1.98894 10.777 1.21916C9.68649 0.417293 8.33936 0.0323986 6.76771 0.0323986C5.19605 0.0323986 4.26589 0.353144 3.23951 0.930485C2.2452 1.5399 1.44334 2.37384 0.898069 3.4323C0.352802 4.49076 0.0641299 5.70959 0.0641299 7.08879C0.0641299 8.468 0.352802 9.7189 0.898069 10.7774C1.44334 11.8358 2.21312 12.6377 3.20743 13.215C4.20174 13.7924 5.35643 14.081 6.67148 14.081C7.98654 14.081 8.5318 13.9207 9.30159 13.5999C10.0714 13.2792 10.7129 12.8301 11.2581 12.2528C11.8034 11.6754 12.2204 11.034 12.509 10.2962C12.7977 9.55853 12.926 8.78874 12.926 7.98688V6.4473H6.41488V8.53215L6.44696 8.56422Z" fill="#0A2924"/>
<path id="Vector_2" d="M16.9352 9.39812C16.9352 8.50003 17.1597 7.82647 17.6408 7.4095C18.1219 6.96045 18.7634 6.73593 19.5974 6.73593H20.4313V4.61901C20.2389 4.55486 20.0785 4.55487 19.9181 4.52279C19.7577 4.49072 19.5974 4.52279 19.437 4.52279C18.6993 4.52279 18.1219 4.71524 17.6408 5.10013C17.3201 5.35673 17.0956 5.67747 16.9352 6.06237L16.8069 4.71524H14.6579V13.8885H16.9352V9.43019V9.39812Z" fill="#0A2924"/>
<path id="Vector_3" d="M22.8052 13.4716C23.4467 13.8886 24.2165 14.1131 25.1146 14.1131C26.0127 14.1131 26.4938 13.9527 27.0391 13.632C27.5843 13.3112 28.0013 12.9263 28.29 12.4452L28.4504 13.8886H30.5673V4.6832H28.5145L28.3862 6.09448C28.0975 5.54921 27.6806 5.13224 27.0711 4.84357C26.4617 4.5549 25.8523 4.39453 25.1788 4.39453C24.5052 4.39453 23.575 4.58697 22.9015 5.00394C22.2279 5.42091 21.7468 5.96618 21.394 6.67182C21.0411 7.37746 20.8487 8.21139 20.8487 9.17363C20.8487 10.1359 21.0091 10.9698 21.3619 11.7075C21.6826 12.4452 22.1958 13.0546 22.8373 13.4716H22.8052ZM23.4147 7.8265C23.6071 7.40953 23.9278 7.08879 24.3127 6.83219C24.6976 6.57559 25.1467 6.47937 25.6919 6.47937C26.2372 6.47937 26.6542 6.60767 27.0711 6.83219C27.456 7.05671 27.7768 7.40953 27.9692 7.8265C28.1938 8.24347 28.29 8.72458 28.29 9.30193C28.29 9.87927 28.1938 10.3283 27.9692 10.7774C27.7447 11.1943 27.456 11.5471 27.0711 11.7717C26.6863 11.9962 26.2372 12.1245 25.6919 12.1245C25.1467 12.1245 24.7297 11.9962 24.3448 11.7717C23.9599 11.5151 23.6713 11.1943 23.4467 10.7774C23.2543 10.3604 23.126 9.87927 23.126 9.334C23.126 8.78874 23.2222 8.30762 23.4467 7.89065L23.4147 7.8265Z" fill="#0A2924"/>
<path id="Vector_4" d="M39.3556 5.83757C39.0669 5.38853 38.65 5.03571 38.1368 4.77911C37.5915 4.52252 37.0142 4.39422 36.3727 4.39422C35.4425 4.39422 34.6727 4.61874 33.9992 5.03571C33.3256 5.45268 32.8124 6.03002 32.4596 6.76773C32.1068 7.50545 31.9464 8.33938 31.9464 9.30162C31.9464 10.2639 32.1068 11.0978 32.4596 11.8034C32.8124 12.5091 33.2935 13.0864 33.935 13.4713C34.5765 13.8883 35.3463 14.0807 36.2444 14.0807C37.1425 14.0807 37.5594 13.9203 38.1368 13.6317C38.7141 13.343 39.1311 12.926 39.3877 12.4128L39.5481 13.8562H41.6329V9.79501e-06H39.3877V5.83757H39.3556ZM39.0028 10.6808C38.7783 11.0978 38.4896 11.4506 38.1047 11.6751C37.7198 11.8997 37.2708 12.028 36.7255 12.028C36.1802 12.028 35.7633 11.8997 35.3784 11.6751C34.9935 11.4506 34.7048 11.0978 34.4803 10.6808C34.2878 10.2639 34.1595 9.78274 34.1595 9.23747C34.1595 8.6922 34.2558 8.21109 34.4803 7.79412C34.6727 7.37715 34.9935 7.0564 35.3784 6.79981C35.7633 6.54321 36.2123 6.44699 36.7255 6.44699C37.2387 6.44699 37.7198 6.57529 38.1047 6.79981C38.4896 7.02433 38.7783 7.37715 39.0028 7.79412C39.2273 8.21109 39.3235 8.6922 39.3235 9.26954C39.3235 9.84688 39.2273 10.2959 39.0028 10.745V10.6808Z" fill="#0A2924"/>
<path id="Vector_5" d="M46.9574 14.113C47.5668 14.113 48.1762 13.9847 48.7215 13.6961C49.2667 13.4074 49.6837 13.0866 49.9403 12.6376L50.1007 13.8564H52.2176V4.65105H49.9403V9.46222C49.9403 10.3282 49.7799 10.9697 49.4271 11.4188C49.0743 11.8357 48.529 12.0603 47.8234 12.0603C47.1177 12.0603 46.7008 11.8678 46.38 11.4829C46.0593 11.098 45.8668 10.4565 45.8668 9.59052V4.65105H43.5895V10.3924C43.5895 11.515 43.8782 12.4131 44.4876 13.0866C45.097 13.7602 45.8989 14.081 46.9574 14.081V14.113Z" fill="#0A2924"/>
<path id="Vector_6" d="M67.6128 5.32469C67.0033 4.6832 66.1694 4.39453 65.0468 4.39453C63.9242 4.39453 63.5714 4.61905 62.994 5.03602C62.5771 5.35676 62.2884 5.70958 62.0959 6.15862C61.9035 5.70958 61.6148 5.32469 61.2299 5.03602C60.7167 4.61905 60.0432 4.39453 59.2413 4.39453C58.4395 4.39453 57.8621 4.5549 57.381 4.90772C56.9961 5.16431 56.7395 5.45299 56.515 5.77373L56.3225 4.6832H54.2377V13.8886H56.515V8.69251C56.515 8.21139 56.6112 7.79442 56.7716 7.44161C56.932 7.12086 57.1886 6.86426 57.4772 6.70389C57.7659 6.54352 58.1187 6.47937 58.4715 6.47937C59.0168 6.47937 59.4338 6.63974 59.7545 6.99256C60.0752 7.31331 60.2356 7.8265 60.2356 8.46799V13.8886H62.5129V8.69251C62.5129 8.17932 62.6091 7.76235 62.7695 7.44161C62.9299 7.12086 63.1865 6.86426 63.4751 6.70389C63.7638 6.54352 64.0846 6.44729 64.4374 6.44729C64.9827 6.44729 65.4317 6.60767 65.7524 6.96049C66.0732 7.31331 66.2336 7.79442 66.2336 8.46799V13.8886H68.4788V7.89065C68.4788 6.83219 68.1901 5.99825 67.5807 5.35676L67.6128 5.32469Z" fill="#0A2924"/>
<path id="Vector_7" d="M6.47905 25.6914H10.5846V25.7555C10.5846 26.3008 10.4884 26.7819 10.328 27.1989C10.1676 27.6158 9.87895 28.0007 9.55821 28.2894C9.23746 28.5781 8.85257 28.8347 8.37145 28.963C7.92241 29.1233 7.37714 29.1875 6.76772 29.1875C6.15831 29.1875 5.19607 28.9951 4.55458 28.6422C3.91309 28.2894 3.3999 27.7441 3.04708 27.0385C2.69426 26.3329 2.50181 25.4989 2.50181 24.4725C2.50181 23.4462 2.66218 22.6122 3.015 21.9066C3.33575 21.1689 3.84894 20.6236 4.45836 20.2066C5.09985 19.7897 5.86964 19.5972 6.73565 19.5972C7.60166 19.5972 8.27523 19.7897 8.91672 20.1746C9.55821 20.5595 9.97517 21.1368 10.1676 21.9387H12.6694C12.5411 21.0085 12.2204 20.2066 11.6751 19.5331C11.1299 18.8595 10.4563 18.3142 9.59028 17.9293C8.72427 17.5444 7.79411 17.352 6.76772 17.352C5.74134 17.352 4.23384 17.6407 3.20745 18.2501C2.18107 18.8595 1.37921 19.6934 0.833939 20.7519C0.256598 21.8104 0 23.0292 0 24.4084C0 25.7876 0.288673 27.0385 0.833939 28.0649C1.37921 29.1233 2.14899 29.9252 3.11123 30.5026C4.07346 31.0799 5.19607 31.3686 6.47905 31.3686C7.76203 31.3686 7.79411 31.2723 8.37145 31.112C8.94879 30.9195 9.46198 30.695 9.87895 30.3422C10.1676 30.1177 10.4242 29.8611 10.5846 29.6045L10.7129 31.144H12.7336V23.5103H6.4149V25.6272L6.47905 25.6914Z" fill="#0A2924"/>
<path id="Vector_8" d="M19.5011 21.9072C18.7634 21.9072 18.1861 22.0996 17.705 22.4845C17.3842 22.7411 17.1597 23.0619 16.9993 23.4147L16.871 22.0675H14.722V31.2409H16.9993V26.7825C16.9993 25.8844 17.2238 25.2108 17.705 24.7939C18.1861 24.3448 18.8276 24.1203 19.6615 24.1203H20.4954V22.0034C20.303 21.9392 20.1426 21.9392 19.9822 21.9072C19.8219 21.8751 19.6615 21.9072 19.5011 21.9072Z" fill="#0A2924"/>
<path id="Vector_9" d="M28.3858 22.3883C27.6481 21.9714 26.8142 21.7789 25.852 21.7789C24.8897 21.7789 24.0558 21.9714 23.3181 22.3883C22.5804 22.8053 22.003 23.3826 21.5861 24.0883C21.1691 24.826 20.9446 25.6599 20.9446 26.6222C20.9446 27.5844 21.1691 28.4183 21.5861 29.1561C22.003 29.8938 22.5804 30.439 23.3181 30.856C24.0558 31.273 24.8897 31.4654 25.852 31.4654C26.8142 31.4654 27.6481 31.273 28.3858 30.856C29.1236 30.439 29.7009 29.8617 30.1179 29.1561C30.5348 28.4183 30.7594 27.5844 30.7594 26.6222C30.7594 25.6599 30.5348 24.826 30.1179 24.0883C29.7009 23.3506 29.1236 22.8053 28.3858 22.3883ZM28.1613 28.0976C27.9368 28.5146 27.6161 28.8353 27.2312 29.0919C26.8463 29.3164 26.3652 29.4447 25.852 29.4447C25.3388 29.4447 24.8577 29.3164 24.4728 29.0919C24.0879 28.8674 23.7671 28.5146 23.5426 28.0976C23.3181 27.6806 23.1898 27.1995 23.1898 26.6222C23.1898 26.0448 23.3181 25.5637 23.5426 25.1467C23.7671 24.7298 24.0879 24.409 24.4728 24.1524C24.8577 23.9279 25.3067 23.7996 25.852 23.7996C26.3972 23.7996 26.8463 23.9279 27.2312 24.1524C27.6161 24.3769 27.9368 24.7298 28.1613 25.1467C28.3858 25.5637 28.4821 26.0448 28.4821 26.6222C28.4821 27.1995 28.3538 27.6806 28.1613 28.0976Z" fill="#0A2924"/>
<path id="Vector_10" d="M38.2972 26.8463C38.2972 27.7123 38.1368 28.3538 37.784 28.8028C37.4311 29.2198 36.8859 29.4443 36.1802 29.4443C35.4746 29.4443 35.0576 29.2519 34.7369 28.867C34.4161 28.4821 34.2237 27.8406 34.2237 26.9746V22.0351H31.9464V27.7765C31.9464 28.8991 32.2351 29.7971 32.8445 30.4707C33.4539 31.1443 34.2558 31.465 35.3142 31.465C36.3727 31.465 36.5331 31.3367 37.0783 31.0481C37.6236 30.7594 38.0406 30.4386 38.2972 29.9896L38.4575 31.2084H40.5744V22.003H38.2972V26.8142V26.8463Z" fill="#0A2924"/>
<path id="Vector_11" d="M50.2928 22.3559C49.6513 21.971 48.8815 21.7465 48.0155 21.7465C47.1495 21.7465 46.7004 21.9069 46.1231 22.1956C45.5457 22.4842 45.1288 22.9012 44.8401 23.4465L44.6797 22.0673H42.5628V35.5386H44.8401V30.0538C45.1288 30.5029 45.5457 30.8878 46.1231 31.1444C46.7004 31.401 47.3098 31.5292 47.9834 31.5292C48.657 31.5292 49.6833 31.3047 50.3248 30.8878C50.9663 30.4708 51.4474 29.8614 51.7682 29.1237C52.0889 28.3859 52.2814 27.5199 52.2814 26.5898C52.2814 25.6596 52.0889 24.7936 51.7361 24.088C51.3833 23.3823 50.8701 22.8371 50.2286 22.4201L50.2928 22.3559ZM49.7475 28.0973C49.5551 28.5142 49.2664 28.8671 48.8815 29.0916C48.4966 29.3161 48.0476 29.4444 47.5023 29.4444C46.957 29.4444 46.54 29.3161 46.1231 29.0916C45.7382 28.835 45.4174 28.5142 45.225 28.0973C45.0005 27.6803 44.9042 27.1992 44.9042 26.6539C44.9042 26.1087 45.0005 25.5955 45.225 25.1785C45.4495 24.7615 45.7382 24.4408 46.1231 24.1842C46.508 23.9597 46.957 23.8314 47.5023 23.8314C48.0476 23.8314 48.4966 23.9597 48.8815 24.1842C49.2664 24.4087 49.5551 24.7615 49.7475 25.1785C49.9399 25.5955 50.0362 26.0766 50.0362 26.6218C50.0362 27.1671 49.9399 27.6482 49.7475 28.0652V28.0973Z" fill="#0A2924"/>
</g>
</svg>
