<?xml version="1.0" encoding="UTF-8"?>
<svg id="Capa_2" data-name="Capa 2" xmlns="http://www.w3.org/2000/svg" viewBox="0 0 362.16 538.34">
  <defs>
    <style>
      .cls-1 {
        fill: #fff;
      }
    </style>
  </defs>
  <g id="Capa_1-2" data-name="Capa 1">
    <g>
      <path class="cls-1" d="M163.91,10.76v103.83c0,2.85-1.14,5.59-3.16,7.61L22.58,259.8c-2.02,2.01-3.16,4.75-3.16,7.61v8.89c0,5.93,4.81,10.73,10.73,10.73h123.02c5.93,0,10.73,4.81,10.73,10.73v79.52c0,5.93-4.81,10.73-10.73,10.73h-76.38c-2.93,0-5.73-1.19-7.75-3.31L2.98,315.78c-1.92-2-2.98-4.66-2.98-7.43v-155.15c0-2.85,1.13-5.58,3.14-7.59L145.59,3.17c6.76-6.76,18.33-1.97,18.33,7.59Z"/>
      <path class="cls-1" d="M198.24,527.58v-103.83c0-2.85,1.14-5.59,3.16-7.61l138.17-137.62c2.02-2.01,3.16-4.75,3.16-7.61v-8.89c0-5.93-4.81-10.73-10.73-10.73h-123.02c-5.93,0-10.73-4.81-10.73-10.73v-79.52c0-5.93,4.81-10.73,10.73-10.73h76.38c2.93,0,5.73,1.19,7.75,3.31l66.06,68.93c1.92,2,2.98,4.66,2.98,7.43v155.15c0,2.85-1.13,5.58-3.14,7.59l-142.44,142.44c-6.76,6.76-18.33,1.97-18.33-7.59Z"/>
    </g>
  </g>
</svg>