<?xml version="1.0" encoding="UTF-8"?>
<svg id="Capa_2" data-name="Capa 2" xmlns="http://www.w3.org/2000/svg" viewBox="0 0 440.28 432.01">
  <defs>
    <style>
      .cls-1 {
        fill: #fff;
      }
    </style>
  </defs>
  <g id="Capa_1-2" data-name="Capa 1">
    <g>
      <path class="cls-1" d="M428.57,253.1h-86.8c-6.47,0-11.71,5.24-11.71,11.71v134.29c0,6.47-5.24,11.71-11.71,11.71h-9.73c-3.12,0-6.11-1.25-8.31-3.46l-7.19-7.25-50.79-50.99c-12.23-12.28-32.12-12.28-44.36,0l-50.78,50.99-7.23,7.26c-2.2,2.21-5.18,3.45-8.3,3.45h-9.7c-6.47,0-11.71-5.24-11.71-11.71v-134.29c0-6.47-5.24-11.71-11.71-11.71H11.72C5.25,253.1,0,258.34,0,264.81v83.37c0,3.21,1.3,6.26,3.61,8.46l75.26,72.11c2.18,2.09,5.09,3.26,8.11,3.26h96.97s72.38,0,72.38,0h97c3.02,0,5.91-1.17,8.11-3.26l75.24-72.11c2.3-2.21,3.6-5.26,3.6-8.45v-83.39c0-6.47-5.24-11.71-11.71-11.71Z"/>
      <path class="cls-1" d="M436.68,75.37L361.41,3.26C359.24,1.17,356.32,0,353.3,0h-96.97s-72.38,0-72.38,0h-97c-3.02,0-5.91,1.17-8.11,3.26L3.61,75.37C1.3,77.57,0,80.62,0,83.83v83.38c0,6.47,5.24,11.71,11.71,11.71h86.8c6.47,0,11.71-5.24,11.71-11.71V32.92c0-6.47,5.24-11.71,11.71-11.71h9.74c3.11,0,6.09,1.24,8.28,3.45l7.21,7.26,50.78,50.98c12.23,12.28,32.12,12.28,44.36,0l50.78-50.98,7.23-7.26c2.2-2.21,5.18-3.45,8.3-3.45h9.7c6.47,0,11.71,5.24,11.71,11.71v134.29c0,6.47,5.24,11.71,11.71,11.71h86.82c6.47,0,11.71-5.24,11.71-11.71v-83.38c0-3.21-1.3-6.25-3.6-8.45Z"/>
    </g>
  </g>
</svg>