<?xml version="1.0" encoding="UTF-8"?>
<svg id="Capa_2" data-name="Capa 2" xmlns="http://www.w3.org/2000/svg" viewBox="0 0 595.3 341.98">
  <defs>
    <style>
      .cls-1 {
        fill: #fff;
      }
    </style>
  </defs>
  <g id="Capa_1-2" data-name="Capa 1">
    <g>
      <path class="cls-1" d="M9.91,151.01h73.25c5.47,0,9.91-4.44,9.91-9.91V27.75c0-5.39,4.36-9.83,9.83-9.83h8.24c2.62,0,5.15,1.03,6.98,2.85l119.78,120.34,6.98,6.98c1.9,1.82,4.36,2.93,6.98,2.93h69.12c5.47,0,9.91-4.44,9.91-9.91V27.75c0-5.39,4.44-9.83,9.91-9.83h8.17c2.62,0,5.15,1.03,6.98,2.85l126.84,127.31c1.82,1.82,4.36,2.93,6.98,2.93h95.6c8.88,0,13.24-10.7,7.06-16.89L461.13,2.93c-1.82-1.9-4.36-2.93-6.98-2.93h-142.93c-2.54,0-5,.95-6.82,2.77l-41.54,39.72h0S223.31,2.93,223.31,2.93c-1.82-1.9-4.36-2.93-6.98-2.93H73.41c-2.54,0-5,.95-6.82,2.77L3.09,63.58c-1.98,1.9-3.09,4.44-3.09,7.13v70.39c0,5.47,4.44,9.91,9.91,9.91Z"/>
      <path class="cls-1" d="M585.35,190.97h-95.6c-2.62,0-5.15,1.03-6.98,2.93l-126.84,127.23c-1.82,1.9-4.36,2.93-6.98,2.93h-8.17c-5.47,0-9.91-4.44-9.91-9.91v-113.28c0-5.47-4.44-9.91-9.91-9.91h-69.12c-2.62,0-5.07,1.03-6.98,2.93l-6.98,6.98-119.78,120.26c-1.82,1.9-4.36,2.93-6.98,2.93h-8.24c-5.47,0-9.83-4.44-9.83-9.91v-113.28c0-5.47-4.44-9.91-9.91-9.91H9.91c-5.47,0-9.91,4.44-9.91,9.91v70.32c0,2.7,1.11,5.31,3.09,7.13l63.5,60.88c1.82,1.74,4.28,2.77,6.82,2.77h142.93c2.62,0,5.15-1.03,6.98-2.93l39.64-39.64h0l41.46,39.8c1.82,1.74,4.28,2.77,6.82,2.77h142.93c2.62,0,5.15-1.03,6.98-2.93l131.28-131.2c6.19-6.26,1.82-16.89-7.06-16.89Z"/>
    </g>
  </g>
</svg>