<?xml version="1.0" encoding="UTF-8"?>
<svg id="Capa_2" xmlns="http://www.w3.org/2000/svg" version="1.1" viewBox="0 0 386.6 148.9">
  <!-- Generator: Adobe Illustrator 30.2.1, SVG Export Plug-In . SVG Version: 2.1.1 Build 1)  -->
  <defs>
    <style>
      .st0 {
        fill: #fff;
      }
    </style>
  </defs>
  <g id="Capa_1-2">
    <g>
      <g>
        <path class="st0" d="M193.1,64.9h12.5c0,1.6-.4,3-1,4.3-.9,1.9-2.3,3.4-4.2,4.4-1.9,1-4,1.5-6.6,1.5s-4.8-.6-6.7-1.7-3.4-2.8-4.5-5.1c-1.1-2.2-1.6-4.9-1.6-8.1s.5-5.8,1.6-8c1.1-2.3,2.6-4,4.6-5.2s4.2-1.9,6.9-1.9,5.1.6,7.1,1.9c1.9,1.3,3.3,3.1,4.2,5.7h7.8c-1-4.7-3.1-8.3-6.6-10.7-3.4-2.5-7.6-3.7-12.5-3.7s-7.8,1-11,2.8c-3.1,1.9-5.6,4.5-7.3,7.8-1.7,3.3-2.6,7.1-2.6,11.4s.9,8.2,2.6,11.5c1.7,3.3,4.1,5.8,7.2,7.6,3.1,1.8,6.7,2.7,10.8,2.7s5.8-.5,8.2-1.5,4.4-2.4,6.1-4.2,3-3.8,3.9-6.1,1.3-4.7,1.3-7.2v-4.8h-20.3v6.5h0Z"/>
        <path class="st0" d="M225.8,67.5c0-2.8.7-4.9,2.2-6.2,1.5-1.4,3.5-2.1,6.1-2.1h2.6v-6.6c-.6-.2-1.1-.2-1.6-.3s-1,0-1.5,0c-2.3,0-4.1.6-5.6,1.8-1,.8-1.7,1.8-2.2,3l-.4-4.2h-6.7v28.6h7.1v-13.9h0Z"/>
        <path class="st0" d="M244.1,80.2c2,1.3,4.4,2,7.2,2s4.3-.5,6-1.5,3-2.2,3.9-3.7l.5,4.5h6.6v-28.7h-6.4l-.4,4.4c-.9-1.7-2.2-3-4.1-3.9s-3.8-1.4-5.9-1.4-5,.6-7.1,1.9-3.6,3-4.7,5.2-1.7,4.8-1.7,7.8.5,5.6,1.6,7.9c1,2.3,2.6,4.2,4.6,5.5h0ZM246,62.6c.6-1.3,1.6-2.3,2.8-3.1,1.2-.8,2.6-1.1,4.3-1.1s3,.4,4.3,1.1c1.2.7,2.2,1.8,2.8,3.1.7,1.3,1,2.8,1,4.6s-.3,3.2-1,4.6c-.7,1.3-1.6,2.4-2.8,3.1-1.2.7-2.6,1.1-4.3,1.1s-3-.4-4.2-1.1c-1.2-.8-2.1-1.8-2.8-3.1-.6-1.3-1-2.8-1-4.5s.3-3.2,1-4.5h0Z"/>
        <path class="st0" d="M295.7,56.4c-.9-1.4-2.2-2.5-3.8-3.3-1.7-.8-3.5-1.2-5.5-1.2-2.9,0-5.3.7-7.4,2-2.1,1.3-3.7,3.1-4.8,5.4-1.1,2.3-1.6,4.9-1.6,7.9s.5,5.6,1.6,7.8,2.6,4,4.6,5.2c2,1.3,4.4,1.9,7.2,1.9s4.1-.5,5.9-1.4,3.1-2.2,3.9-3.8l.5,4.5h6.5v-43.2h-7v18.2h0ZM294.6,71.5c-.7,1.3-1.6,2.4-2.8,3.1-1.2.7-2.6,1.1-4.3,1.1s-3-.4-4.2-1.1c-1.2-.7-2.1-1.8-2.8-3.1-.6-1.3-1-2.8-1-4.5s.3-3.2,1-4.5c.6-1.3,1.6-2.3,2.8-3.1s2.6-1.1,4.2-1.1,3.1.4,4.3,1.1,2.1,1.8,2.8,3.1c.7,1.3,1,2.8,1,4.6s-.3,3.2-1,4.6h0Z"/>
        <path class="st0" d="M319.4,82.2c1.9,0,3.8-.4,5.5-1.3s3-1.9,3.8-3.3l.5,3.8h6.6v-28.7h-7.1v15c0,2.7-.5,4.7-1.6,6.1-1.1,1.3-2.8,2-5,2s-3.5-.6-4.5-1.8c-1-1.2-1.6-3.2-1.6-5.9v-15.4h-7.1v17.9c0,3.5.9,6.3,2.8,8.4,1.9,2.1,4.4,3.1,7.7,3.1h0Z"/>
        <path class="st0" d="M383.8,54.8c-1.9-2-4.5-2.9-8-2.9s-4.6.7-6.4,2c-1.3,1-2.2,2.1-2.8,3.5-.6-1.4-1.5-2.6-2.7-3.5-1.6-1.3-3.7-2-6.2-2s-4.3.5-5.8,1.6c-1.2.8-2,1.7-2.7,2.7l-.6-3.4h-6.5v28.7h7.1v-16.2c0-1.5.3-2.8.8-3.9.5-1,1.3-1.8,2.2-2.3.9-.5,2-.7,3.1-.7,1.7,0,3,.5,4,1.6,1,1,1.5,2.6,1.5,4.6v16.9h7.1v-16.2c0-1.6.3-2.9.8-3.9s1.3-1.8,2.2-2.3,1.9-.8,3-.8c1.7,0,3.1.5,4.1,1.6,1,1.1,1.5,2.6,1.5,4.7v16.9h7v-18.7c0-3.3-.9-5.9-2.8-7.9h0Z"/>
        <path class="st0" d="M193.2,118.3h12.8v.2c0,1.7-.3,3.2-.8,4.5s-1.4,2.5-2.4,3.4c-1,.9-2.2,1.7-3.7,2.1-1.4.5-3.1.7-5,.7s-4.9-.6-6.9-1.7c-2-1.1-3.6-2.8-4.7-5-1.1-2.2-1.7-4.8-1.7-8s.5-5.8,1.6-8c1-2.3,2.6-4,4.5-5.3,2-1.3,4.4-1.9,7.1-1.9s4.8.6,6.8,1.8,3.3,3,3.9,5.5h7.8c-.4-2.9-1.4-5.4-3.1-7.5-1.7-2.1-3.8-3.8-6.5-5s-5.6-1.8-8.8-1.8-7.9.9-11.1,2.8-5.7,4.5-7.4,7.8c-1.8,3.3-2.6,7.1-2.6,11.4s.9,8.2,2.6,11.4c1.7,3.3,4.1,5.8,7.1,7.6s6.5,2.7,10.5,2.7,4.1-.3,5.9-.8c1.8-.6,3.4-1.3,4.7-2.4.9-.7,1.7-1.5,2.2-2.3l.4,4.8h6.3v-23.8h-19.7v6.6h0Z"/>
        <path class="st0" d="M233.8,106.5c-2.3,0-4.1.6-5.6,1.8-1,.8-1.7,1.8-2.2,2.9l-.4-4.2h-6.7v28.6h7.1v-13.9c0-2.8.7-4.9,2.2-6.2,1.5-1.4,3.5-2.1,6.1-2.1h2.6v-6.6c-.6-.2-1.1-.2-1.6-.3s-1,0-1.5,0h0Z"/>
        <path class="st0" d="M261.5,108c-2.3-1.3-4.9-1.9-7.9-1.9s-5.6.6-7.9,1.9c-2.3,1.3-4.1,3.1-5.4,5.3-1.3,2.3-2,4.9-2,7.9s.7,5.6,2,7.9c1.3,2.3,3.1,4,5.4,5.3,2.3,1.3,4.9,1.9,7.9,1.9s5.6-.6,7.9-1.9,4.1-3.1,5.4-5.3c1.3-2.3,2-4.9,2-7.9s-.7-5.6-2-7.9c-1.3-2.3-3.1-4-5.4-5.3ZM260.8,125.8c-.7,1.3-1.7,2.3-2.9,3.1-1.2.7-2.7,1.1-4.3,1.1s-3.1-.4-4.3-1.1c-1.2-.7-2.2-1.8-2.9-3.1-.7-1.3-1.1-2.8-1.1-4.6s.4-3.3,1.1-4.6c.7-1.3,1.7-2.3,2.9-3.1,1.2-.7,2.6-1.1,4.3-1.1s3.1.4,4.3,1.1c1.2.7,2.2,1.8,2.9,3.1.7,1.3,1,2.8,1,4.6s-.4,3.3-1,4.6Z"/>
        <path class="st0" d="M292.4,121.9c0,2.7-.5,4.7-1.6,6.1-1.1,1.3-2.8,2-5,2s-3.5-.6-4.5-1.8c-1-1.2-1.6-3.2-1.6-5.9v-15.4h-7.1v17.9c0,3.5.9,6.3,2.8,8.4,1.9,2.1,4.4,3.1,7.7,3.1s3.8-.4,5.5-1.3,3-1.9,3.8-3.3l.5,3.8h6.6v-28.7h-7.1v15h0Z"/>
        <path class="st0" d="M329.8,107.9c-2-1.2-4.4-1.9-7.1-1.9s-4.1.5-5.9,1.4-3.1,2.2-4,3.9l-.5-4.3h-6.6v42h7.1v-17.1c.9,1.4,2.2,2.6,4,3.4,1.8.8,3.7,1.2,5.8,1.2s5.3-.7,7.3-2,3.5-3.2,4.5-5.5c1-2.3,1.6-5,1.6-7.9s-.6-5.6-1.7-7.8c-1.1-2.2-2.7-3.9-4.7-5.2h0ZM328.1,125.8c-.6,1.3-1.5,2.4-2.7,3.1s-2.6,1.1-4.3,1.1-3-.4-4.3-1.1c-1.2-.8-2.2-1.8-2.8-3.1-.7-1.3-1-2.8-1-4.5s.3-3.3,1-4.6c.7-1.3,1.6-2.3,2.8-3.1,1.2-.7,2.6-1.1,4.3-1.1s3.1.4,4.3,1.1,2.1,1.8,2.7,3.1c.6,1.3.9,2.8.9,4.5s-.3,3.2-.9,4.5Z"/>
      </g>
      <g>
        <path class="st0" d="M57.5,3.8v36.4c0,1-.4,2-1.1,2.7L7.9,91.2c-.7.7-1.1,1.7-1.1,2.7v3.1c0,2.1,1.7,3.8,3.8,3.8h43.2c2.1,0,3.8,1.7,3.8,3.8v27.9c0,2.1-1.7,3.8-3.8,3.8h-26.8c-1,0-2-.4-2.7-1.2L1,110.9c-.7-.7-1-1.6-1-2.6v-54.5c0-1,.4-2,1.1-2.7L51.1,1.1c2.4-2.4,6.4-.7,6.4,2.7h0Z"/>
        <path class="st0" d="M72.8,3.8v36.4c0,1,.4,2,1.1,2.7l48.5,48.3c.7.7,1.1,1.7,1.1,2.7v3.1c0,2.1-1.7,3.8-3.8,3.8h-43.2c-2.1,0-3.8,1.7-3.8,3.8v27.9c0,2.1,1.7,3.8,3.8,3.8h26.8c1,0,2-.4,2.7-1.2l23.2-24.2c.7-.7,1.1-1.6,1.1-2.6v-54.5c0-1-.4-2-1.1-2.7L79.2,1.1c-2.4-2.4-6.4-.7-6.4,2.7h0Z"/>
      </g>
    </g>
  </g>
</svg>