<?xml version="1.0" encoding="UTF-8"?>
<svg id="Capa_2" data-name="Capa 2" xmlns="http://www.w3.org/2000/svg" viewBox="0 0 416.12 398.11">
  <defs>
    <style>
      .cls-1 {
        fill: #fff;
      }
    </style>
  </defs>
  <g id="Capa_1-2" data-name="Capa 1">
    <g>
      <path class="cls-1" d="M404.58,175.78h-111.34c-3.06,0-6-1.22-8.16-3.39L137.5,24.22c-2.16-2.17-5.1-3.39-8.16-3.39h-9.53c-6.36,0-11.51,5.15-11.51,11.51v131.93c0,6.36-5.15,11.51-11.51,11.51H11.51c-6.36,0-11.51-5.15-11.51-11.51v-81.91c0-3.14,1.28-6.14,3.55-8.31L77.47,3.2c2.14-2.05,5-3.2,7.97-3.2h166.39c3.05,0,5.98,1.21,8.14,3.37l152.76,152.76c7.25,7.25,2.12,19.65-8.14,19.65Z"/>
      <path class="cls-1" d="M11.54,222.33h111.34c3.06,0,6,1.22,8.16,3.39l147.58,148.18c2.16,2.17,5.1,3.39,8.16,3.39h9.53c6.36,0,11.51-5.15,11.51-11.51v-131.93c0-6.36,5.15-11.51,11.51-11.51h85.28c6.36,0,11.51,5.15,11.51,11.51v81.91c0,3.14-1.28,6.14-3.55,8.31l-73.92,70.85c-2.14,2.05-5,3.2-7.97,3.2h-166.39c-3.05,0-5.98-1.21-8.14-3.37L3.39,241.98c-7.25-7.25-2.12-19.65,8.14-19.65Z"/>
    </g>
  </g>
</svg>